<?xml version="1.0" encoding="UTF-8" standalone="no"?>
<svg
   xmlns:dc="http://purl.org/dc/elements/1.1/"
   xmlns:cc="http://creativecommons.org/ns#"
   xmlns:rdf="http://www.w3.org/1999/02/22-rdf-syntax-ns#"
   xmlns:svg="http://www.w3.org/2000/svg"
   xmlns="http://www.w3.org/2000/svg"
   version="1.1"
   id="svg2"
   viewBox="0 0 60.000001 60.000001"
   height="60"
   width="60">
  <defs
     id="defs4" />
  <metadata
     id="metadata7">
    <rdf:RDF>
      <cc:Work
         rdf:about="">
        <dc:format>image/svg+xml</dc:format>
        <dc:type
           rdf:resource="http://purl.org/dc/dcmitype/StillImage" />
        <dc:title></dc:title>
      </cc:Work>
    </rdf:RDF>
  </metadata>
  <g
     transform="translate(0,-992.36216)"
     id="layer1">
    <path
       id="path4154"
       d="m 34,1012.41 c -1,3.9522 1,7.9522 4.742629,11.1553 C 34,1023.3622 31,1017.3622 30.636952,1013.7004"
       style="color:#000000;display:inline;overflow:visible;visibility:visible;fill:#ffa700;fill-opacity:1;fill-rule:evenodd;stroke:none;stroke-width:1.5;stroke-linecap:butt;stroke-linejoin:miter;stroke-miterlimit:4;stroke-dasharray:none;stroke-dashoffset:0;stroke-opacity:1;marker:none;enable-background:accumulate" />
    <path
       id="path4144"
       d="m 55,993.36216 -5,0 0,1 -40,0 0,-1 -5,0 -1,-1 0,2 c -0.7537372,8.11504 -2.531136,12.28484 -4,14.50004 6.0243985,1.5219 10.801507,3.8485 5,13 -3.3932779,8.2134 -4.02567845,17.4486 -5,30.5 l 23,0 c -0.195423,-15.7294 0.949255,-24.035 5,-30.5 1,-7.5 4,-9.5 15,-8 l 12,0 0,-1 5,0 0,-18.50004 -5,0 z"
       style="color:#000000;display:inline;overflow:visible;visibility:visible;fill:#ffa700;fill-opacity:1;fill-rule:evenodd;stroke:none;stroke-width:1.5;stroke-linecap:butt;stroke-linejoin:miter;stroke-miterlimit:4;stroke-dasharray:none;stroke-dashoffset:0;stroke-opacity:1;marker:none;enable-background:accumulate" />
  </g>
</svg>
